<svg fill="white" xmlns="http://www.w3.org/2000/svg" xml:space="preserve" viewBox="0 0 58 58"><path d="M32 0c-1.021 0-2.025.076-3.015.21C27.953.072 26.972 0 26 0 18.638 0 11.999 3.571 7.34 9.264c-.047.042-.081.092-.119.142-1.485 1.839-2.761 3.898-3.793 6.126-.026.049-.049.097-.068.15-.711 1.557-1.304 3.193-1.76 4.897-.045.096-.065.201-.078.31C.861 23.465.5 26.185.5 29c0 4.404.872 8.579 2.423 12.321.014.04.027.078.046.116.93 2.218 2.1 4.28 3.473 6.145.035.048.064.099.107.14 1.39 1.865 2.983 3.526 4.74 4.942.05.055.11.096.172.139C15.588 56.075 20.599 58 26 58c.972 0 1.953-.072 2.985-.21.99.134 1.994.21 3.015.21 14.061 0 25.5-13.009 25.5-29S46.061 0 32 0zM21.44 2.614c-.331.172-.658.352-.981.539-.181.105-.363.206-.541.316-.277.17-.548.35-.818.531h-1.925c1.462-.684 2.988-1.223 4.579-1.558-.107.053-.208.117-.314.172zM11.36 46H7.774c-.882-1.246-1.665-2.585-2.345-4h3.788c.157.354.318.705.487 1.051.073.149.149.296.225.444.205.402.417.797.638 1.186.082.145.161.292.246.436.176.299.361.591.547.883zM4.968 17h3.827c-.175.437-.341.879-.498 1.327-.043.124-.087.247-.129.371-.144.43-.278.864-.405 1.302H3.857c.318-1.031.69-2.031 1.111-3zM2.5 29c0-.674.036-1.338.078-2h3.987c-.001.016-.001.032-.002.048-.037.646-.063 1.295-.063 1.952 0 .335.012.667.022 1H2.539c-.011-.334-.039-.663-.039-1zm4.136 3c.038.421.087.839.141 1.255.004.03.006.061.01.092.074.556.164 1.107.265 1.653H3.108c-.195-.982-.349-1.981-.448-3h3.976zm.62-10c-.026.118-.048.238-.072.356-.027.132-.055.263-.081.395-.122.627-.23 1.26-.315 1.902-.004.03-.006.061-.01.092-.012.085-.019.17-.03.255H2.779c.132-1.018.299-2.022.528-3h3.949zm.239 15c.031.122.06.246.092.367.012.044.022.09.034.134.165.609.35 1.208.548 1.8.042.125.086.247.129.371.037.11.074.22.113.328H4.558c-.379-.971-.705-1.973-.983-3h3.92zm3.317-24.116c-.084.143-.164.291-.246.436-.221.389-.434.785-.638 1.186-.075.148-.152.294-.225.444-.008.016-.017.033-.025.05H5.929c.757-1.427 1.629-2.762 2.596-4h3.503c-.122.175-.245.349-.364.527-.295.443-.579.895-.852 1.357zM13.732 6h2.762c-.248.217-.496.435-.737.662-.201.19-.396.387-.592.584-.198.199-.394.401-.586.606-.185.197-.37.393-.55.596-.16.18-.313.367-.468.552h-3.302c1.074-1.117 2.233-2.124 3.473-3zM9.324 48h3.432c.113.148.225.296.341.441.302.38.613.75.932 1.111.179.203.365.399.55.596.193.206.389.408.588.607.08.08.156.166.237.245h-3.008c-1.099-.899-2.126-1.903-3.072-3zm12.429 7.558c-2.293-.483-4.46-1.369-6.47-2.558h2.419c.128.099.26.192.389.288.207.154.414.309.625.456.393.274.794.537 1.201.787.178.109.36.211.541.316.323.187.65.367.981.539.107.055.208.119.314.172zM32 56c-.795 0-1.58-.047-2.354-.136l-.387-.054c-.054-.007-.107-.016-.16-.023-.346-.049-.689-.106-1.029-.172-.029-.006-.057-.012-.085-.018-.331-.065-.659-.138-.984-.219-.049-.012-.098-.026-.147-.039-.303-.078-.605-.16-.903-.251-.091-.028-.182-.06-.273-.089-.255-.081-.509-.164-.76-.255-.204-.074-.405-.156-.606-.236-.137-.054-.276-.105-.411-.162-5.377-2.275-9.836-6.748-12.549-12.466-.025-.052-.048-.107-.072-.159-.145-.311-.286-.625-.421-.943-.054-.127-.104-.256-.156-.384-.101-.248-.201-.497-.295-.749-.061-.162-.118-.327-.176-.491-.079-.222-.157-.445-.23-.67-.06-.184-.117-.37-.174-.555-.065-.211-.128-.423-.188-.636-.056-.195-.109-.393-.16-.59-.054-.209-.106-.42-.156-.631-.048-.202-.094-.404-.138-.608-.046-.213-.088-.427-.129-.642-.039-.205-.078-.41-.114-.617-.038-.221-.071-.443-.104-.666-.03-.202-.061-.403-.087-.607-.031-.24-.055-.483-.08-.725-.02-.189-.042-.377-.058-.567-.024-.278-.04-.558-.056-.839-.009-.158-.022-.314-.029-.472-.018-.44-.029-.883-.029-1.329s.011-.889.029-1.33c.007-.158.02-.315.029-.472.016-.28.032-.561.056-.839.016-.19.038-.378.058-.567.025-.242.05-.484.08-.725.026-.203.057-.405.087-.607.033-.223.066-.445.104-.666.035-.207.074-.412.114-.617.041-.215.084-.429.129-.642.044-.204.09-.406.138-.608.05-.211.102-.422.156-.631.051-.198.104-.395.159-.591.06-.213.123-.425.188-.636.057-.186.114-.371.174-.555.074-.225.152-.448.231-.671.058-.164.115-.328.176-.49.095-.252.194-.501.295-.749.052-.128.102-.257.156-.384.135-.318.276-.632.421-.943.025-.053.047-.107.072-.159 2.713-5.718 7.172-10.19 12.549-12.466.136-.057.274-.108.411-.162.201-.08.402-.162.606-.236.251-.091.505-.173.76-.255.091-.029.181-.061.273-.089.298-.091.6-.174.903-.251.048-.011.097-.026.146-.038.325-.081.653-.153.984-.219.029-.006.057-.012.085-.018.34-.066.683-.123 1.029-.172.053-.008.107-.016.16-.023l.387-.054C30.42 2.047 31.205 2 32 2c12.958 0 23.5 12.112 23.5 27S44.958 56 32 56z"/><path d="M32 4C20.145 4 10.5 15.215 10.5 29c0 8.618 3.77 16.232 9.493 20.729l.413-.758c.597-1.094 1.453-2.028 2.475-2.701l6.21-3.753c.1-.06.169-.19.169-.316v-1.218c-2.642-1.305-4.486-3.725-5.49-7.207-1.52-.727-2.54-2.315-2.54-4.041v-1.73c0-1.457.703-2.767 1.867-3.541.208-1.645.594-3.159 1.149-4.508.236-.573.436-.998.599-1.343.496-1.053.525-1.116.17-3.027-.132-.71-.238-1.433-.315-2.147-.042-.382.072-.744.318-1.019.536-.597 1.609-.502 2.081.198.369.547.918 1.135 1.633 1.746 1.828 1.566 3.814 1.965 5.159 2.023.287.012.579.038.875.077 5.95.785 9.175 3.845 9.848 9.35.834.767 1.337 1.926 1.337 3.135v1.438c0 1.461-.718 2.768-1.833 3.422-.769 3.041-2.246 5.273-4.399 6.649v1.182c0 .073.022.115.03.125l4.691 2.415c.909.458 1.647 1.247 2.125 2.279l.278.601C50.94 42.506 53.5 36.096 53.5 29c0-13.785-9.645-25-21.5-25z"/></svg>